<svg width="121" height="121" viewBox="0 0 121 121" fill="none" xmlns="http://www.w3.org/2000/svg">
<path d="M92.24 95C93.2061 95 93.6891 95 94.0581 94.812C94.3827 94.6466 94.6466 94.3827 94.812 94.0581C95 93.6891 95 93.2061 95 92.24V56.36C95 55.3939 95 54.9109 94.812 54.5419C94.6466 54.2173 94.3827 53.9534 94.0581 53.788C93.6891 53.6 93.2061 53.6 92.24 53.6L83.96 53.6C82.9939 53.6 82.5109 53.6 82.1419 53.788C81.8173 53.9534 81.5534 54.2173 81.388 54.5419C81.2 54.9109 81.2 55.3939 81.2 56.36V64.64C81.2 65.6061 81.2 66.0891 81.012 66.4581C80.8466 66.7827 80.5827 67.0466 80.2581 67.212C79.8891 67.4 79.4061 67.4 78.44 67.4H70.16C69.1939 67.4 68.7109 67.4 68.3419 67.588C68.0173 67.7534 67.7534 68.0173 67.588 68.3419C67.4 68.7109 67.4 69.1939 67.4 70.16V78.44C67.4 79.4061 67.4 79.8891 67.212 80.2581C67.0466 80.5827 66.7827 80.8466 66.4581 81.012C66.0891 81.2 65.6061 81.2 64.64 81.2H56.36C55.3939 81.2 54.9109 81.2 54.5419 81.388C54.2173 81.5534 53.9534 81.8173 53.788 82.1419C53.6 82.5109 53.6 82.9939 53.6 83.96V92.24C53.6 93.2061 53.6 93.6891 53.788 94.0581C53.9534 94.3827 54.2173 94.6466 54.5419 94.812C54.9109 95 55.3939 95 56.36 95L92.24 95Z" stroke="black" stroke-width="4" stroke-linecap="round" stroke-linejoin="round"/>
<path d="M53.6 42.56C53.6 41.5939 53.6 41.1109 53.788 40.7419C53.9534 40.4173 54.2173 40.1534 54.5419 39.988C54.9109 39.8 55.3939 39.8 56.36 39.8H64.64C65.6061 39.8 66.0891 39.8 66.4581 39.988C66.7827 40.1534 67.0466 40.4173 67.212 40.7419C67.4 41.1109 67.4 41.5939 67.4 42.56V50.84C67.4 51.8061 67.4 52.2891 67.212 52.6581C67.0466 52.9827 66.7827 53.2466 66.4581 53.412C66.0891 53.6 65.6061 53.6 64.64 53.6H56.36C55.3939 53.6 54.9109 53.6 54.5419 53.412C54.2173 53.2466 53.9534 52.9827 53.788 52.6581C53.6 52.2891 53.6 51.8061 53.6 50.84V42.56Z" stroke="black" stroke-width="4" stroke-linecap="round" stroke-linejoin="round"/>
<path d="M29.45 63.26C29.45 62.2939 29.45 61.8109 29.638 61.4419C29.8034 61.1173 30.0673 60.8534 30.3919 60.688C30.7609 60.5 31.2439 60.5 32.21 60.5H40.49C41.4561 60.5 41.9391 60.5 42.3081 60.688C42.6327 60.8534 42.8966 61.1173 43.062 61.4419C43.25 61.8109 43.25 62.2939 43.25 63.26V71.54C43.25 72.5061 43.25 72.9891 43.062 73.3581C42.8966 73.6827 42.6327 73.9466 42.3081 74.112C41.9391 74.3 41.4561 74.3 40.49 74.3H32.21C31.2439 74.3 30.7609 74.3 30.3919 74.112C30.0673 73.9466 29.8034 73.6827 29.638 73.3581C29.45 72.9891 29.45 72.5061 29.45 71.54V63.26Z" stroke="black" stroke-width="4" stroke-linecap="round" stroke-linejoin="round"/>
<path d="M26 28.76C26 27.7939 26 27.3109 26.188 26.9419C26.3534 26.6173 26.6173 26.3534 26.9419 26.188C27.3109 26 27.7939 26 28.76 26H37.04C38.0061 26 38.4891 26 38.8581 26.188C39.1827 26.3534 39.4466 26.6173 39.612 26.9419C39.8 27.3109 39.8 27.7939 39.8 28.76V37.04C39.8 38.0061 39.8 38.4891 39.612 38.8581C39.4466 39.1827 39.1827 39.4466 38.8581 39.612C38.4891 39.8 38.0061 39.8 37.04 39.8H28.76C27.7939 39.8 27.3109 39.8 26.9419 39.612C26.6173 39.4466 26.3534 39.1827 26.188 38.8581C26 38.4891 26 38.0061 26 37.04V28.76Z" stroke="black" stroke-width="4" stroke-linecap="round" stroke-linejoin="round"/>
</svg>
