<svg width="394" height="127" viewBox="0 0 394 127" fill="none" xmlns="http://www.w3.org/2000/svg">
<path d="M95.74 93.04V29.14H121.21C125.77 29.14 129.7 29.92 133 31.48C136.3 33.04 138.85 35.26 140.65 38.14C142.45 41.02 143.35 44.44 143.35 48.4C143.35 51.28 142.69 53.86 141.37 56.14C140.11 58.42 138.4 60.25 136.24 61.63C134.14 62.95 131.89 63.7 129.49 63.88L129.04 63.07C133.06 63.07 136.18 64 138.4 65.86C140.62 67.66 141.91 70.51 142.27 74.41L143.98 93.04H134.17L132.64 75.67C132.46 73.09 131.59 71.2 130.03 70C128.47 68.74 125.92 68.11 122.38 68.11H105.46V93.04H95.74ZM105.46 59.2H121.39C125.05 59.2 127.93 58.3 130.03 56.5C132.19 54.64 133.27 52.03 133.27 48.67C133.27 45.25 132.19 42.64 130.03 40.84C127.87 38.98 124.72 38.05 120.58 38.05H105.46V59.2ZM170.793 94.12C165.993 94.12 162.153 92.53 159.273 89.35C156.453 86.11 155.043 81.64 155.043 75.94V45.16H164.583V73.51C164.583 77.83 165.333 81.01 166.833 83.05C168.333 85.09 170.613 86.11 173.673 86.11C177.153 86.11 179.853 85 181.773 82.78C183.753 80.5 184.743 77.32 184.743 73.24V45.16H194.283V93.04H185.373L185.193 80.53L186.543 81.07C185.703 85.27 183.933 88.51 181.233 90.79C178.533 93.01 175.053 94.12 170.793 94.12ZM230.485 94.12C227.185 94.12 224.245 93.4 221.665 91.96C219.145 90.46 217.195 88.42 215.815 85.84L215.545 93.04H206.635V29.14H216.175V51.91C217.435 49.81 219.295 47.98 221.755 46.42C224.275 44.86 227.185 44.08 230.485 44.08C234.625 44.08 238.225 45.1 241.285 47.14C244.345 49.18 246.685 52.09 248.305 55.87C249.985 59.59 250.825 64 250.825 69.1C250.825 74.2 249.985 78.64 248.305 82.42C246.685 86.14 244.345 89.02 241.285 91.06C238.225 93.1 234.625 94.12 230.485 94.12ZM228.955 85.84C232.615 85.84 235.525 84.37 237.685 81.43C239.845 78.43 240.925 74.32 240.925 69.1C240.925 63.88 239.845 59.8 237.685 56.86C235.525 53.86 232.645 52.36 229.045 52.36C226.345 52.36 224.035 53.02 222.115 54.34C220.195 55.66 218.725 57.58 217.705 60.1C216.685 62.56 216.175 65.56 216.175 69.1C216.175 72.52 216.685 75.49 217.705 78.01C218.725 80.53 220.195 82.48 222.115 83.86C224.035 85.18 226.315 85.84 228.955 85.84ZM260.512 93.04V45.16H269.242L269.602 57.85L268.792 57.58C269.452 53.26 270.772 50.11 272.752 48.13C274.792 46.15 277.522 45.16 280.942 45.16H285.532V53.71H280.942C278.542 53.71 276.532 54.1 274.912 54.88C273.292 55.66 272.062 56.86 271.222 58.48C270.442 60.1 270.052 62.2 270.052 64.78V93.04H260.512ZM293.383 93.04V45.16H302.923V93.04H293.383ZM293.203 38.23V28.69H303.103V38.23H293.203ZM356.751 106.54H347.211V82.78L348.291 83.86C347.691 85.96 346.641 87.79 345.141 89.35C343.701 90.85 341.931 92.02 339.831 92.86C337.731 93.7 335.481 94.12 333.081 94.12C328.401 94.12 324.531 92.98 321.471 90.7C318.471 88.36 316.221 85.3 314.721 81.52C313.281 77.74 312.561 73.6 312.561 69.1C312.561 64.6 313.281 60.46 314.721 56.68C316.221 52.9 318.471 49.87 321.471 47.59C324.531 45.25 328.401 44.08 333.081 44.08C336.741 44.08 339.951 45.01 342.711 46.87C345.471 48.67 347.421 51.34 348.561 54.88L347.481 55.42L347.751 45.16H356.751V106.54ZM334.791 85.84C337.371 85.84 339.591 85.24 341.451 84.04C343.311 82.78 344.721 80.89 345.681 78.37C346.701 75.85 347.211 72.76 347.211 69.1C347.211 65.44 346.701 62.35 345.681 59.83C344.661 57.31 343.221 55.45 341.361 54.25C339.501 52.99 337.311 52.36 334.791 52.36C330.951 52.36 327.921 53.83 325.701 56.77C323.541 59.71 322.461 63.82 322.461 69.1C322.461 74.38 323.541 78.49 325.701 81.43C327.921 84.37 330.951 85.84 334.791 85.84ZM367.317 93.04V81.7H378.927V93.04H367.317Z" fill="black"/>
<path d="M66.64 93C67.4661 93 67.8791 93 68.1946 92.8392C68.4722 92.6978 68.6978 92.4722 68.8392 92.1946C69 91.8791 69 91.4661 69 90.64V59.96C69 59.1339 69 58.7209 68.8392 58.4054C68.6978 58.1278 68.4722 57.9022 68.1946 57.7608C67.8791 57.6 67.4661 57.6 66.64 57.6L59.56 57.6C58.7339 57.6 58.3209 57.6 58.0054 57.7608C57.7278 57.9022 57.5022 58.1278 57.3608 58.4054C57.2 58.7209 57.2 59.1339 57.2 59.96V67.04C57.2 67.8661 57.2 68.2791 57.0392 68.5946C56.8978 68.8722 56.6722 69.0978 56.3946 69.2392C56.0791 69.4 55.6661 69.4 54.84 69.4H47.76C46.9339 69.4 46.5209 69.4 46.2054 69.5608C45.9278 69.7022 45.7022 69.9278 45.5608 70.2054C45.4 70.5209 45.4 70.9339 45.4 71.76V78.84C45.4 79.6661 45.4 80.0791 45.2392 80.3946C45.0978 80.6722 44.8722 80.8978 44.5946 81.0392C44.2791 81.2 43.8661 81.2 43.04 81.2H35.96C35.1339 81.2 34.7209 81.2 34.4054 81.3608C34.1278 81.5022 33.9022 81.7278 33.7608 82.0054C33.6 82.3209 33.6 82.7339 33.6 83.56V90.64C33.6 91.4661 33.6 91.8791 33.7608 92.1946C33.9022 92.4722 34.1278 92.6978 34.4054 92.8392C34.7209 93 35.1339 93 35.96 93L66.64 93Z" stroke="black" stroke-width="4" stroke-linecap="round" stroke-linejoin="round"/>
<path d="M33.6 48.16C33.6 47.3339 33.6 46.9209 33.7608 46.6054C33.9022 46.3278 34.1278 46.1022 34.4054 45.9608C34.7209 45.8 35.1339 45.8 35.96 45.8H43.04C43.8661 45.8 44.2791 45.8 44.5946 45.9608C44.8722 46.1022 45.0978 46.3278 45.2392 46.6054C45.4 46.9209 45.4 47.3339 45.4 48.16V55.24C45.4 56.0661 45.4 56.4791 45.2392 56.7946C45.0978 57.0722 44.8722 57.2978 44.5946 57.4392C44.2791 57.6 43.8661 57.6 43.04 57.6H35.96C35.1339 57.6 34.7209 57.6 34.4054 57.4392C34.1278 57.2978 33.9022 57.0722 33.7608 56.7946C33.6 56.4791 33.6 56.0661 33.6 55.24V48.16Z" stroke="black" stroke-width="4" stroke-linecap="round" stroke-linejoin="round"/>
<path d="M12.95 65.86C12.95 65.0339 12.95 64.6209 13.1108 64.3054C13.2522 64.0278 13.4778 63.8022 13.7554 63.6608C14.0709 63.5 14.4839 63.5 15.31 63.5H22.39C23.2161 63.5 23.6291 63.5 23.9446 63.6608C24.2222 63.8022 24.4478 64.0278 24.5892 64.3054C24.75 64.6209 24.75 65.0339 24.75 65.86V72.94C24.75 73.7661 24.75 74.1791 24.5892 74.4946C24.4478 74.7722 24.2222 74.9978 23.9446 75.1392C23.6291 75.3 23.2161 75.3 22.39 75.3H15.31C14.4839 75.3 14.0709 75.3 13.7554 75.1392C13.4778 74.9978 13.2522 74.7722 13.1108 74.4946C12.95 74.1791 12.95 73.7661 12.95 72.94V65.86Z" stroke="black" stroke-width="4" stroke-linecap="round" stroke-linejoin="round"/>
<path d="M10 36.36C10 35.5339 10 35.1209 10.1608 34.8054C10.3022 34.5278 10.5278 34.3022 10.8054 34.1608C11.1209 34 11.5339 34 12.36 34H19.44C20.2661 34 20.6791 34 20.9946 34.1608C21.2722 34.3022 21.4978 34.5278 21.6392 34.8054C21.8 35.1209 21.8 35.5339 21.8 36.36V43.44C21.8 44.2661 21.8 44.6791 21.6392 44.9946C21.4978 45.2722 21.2722 45.4978 20.9946 45.6392C20.6791 45.8 20.2661 45.8 19.44 45.8H12.36C11.5339 45.8 11.1209 45.8 10.8054 45.6392C10.5278 45.4978 10.3022 45.2722 10.1608 44.9946C10 44.6791 10 44.2661 10 43.44V36.36Z" stroke="black" stroke-width="4" stroke-linecap="round" stroke-linejoin="round"/>
</svg>
